<?xml version="1.0" encoding="UTF-8" standalone="no"?>
<!-- Created with Inkscape (http://www.inkscape.org/) -->

<svg
   version="1.1"
   id="svg2"
   xml:space="preserve"
   width="140"
   height="36"
   viewBox="0 0 140 36"
   sodipodi:docname="collegato-logo-white.svg"
   inkscape:version="1.2 (dc2aedaf03, 2022-05-15)"
   xmlns:inkscape="http://www.inkscape.org/namespaces/inkscape"
   xmlns:sodipodi="http://sodipodi.sourceforge.net/DTD/sodipodi-0.dtd"
   xmlns="http://www.w3.org/2000/svg"
   xmlns:svg="http://www.w3.org/2000/svg"><defs
     id="defs6" /><sodipodi:namedview
     id="namedview4"
     pagecolor="#ffffff"
     bordercolor="#666666"
     borderopacity="1.0"
     inkscape:pageshadow="2"
     inkscape:pageopacity="0.0"
     inkscape:pagecheckerboard="0"
     inkscape:showpageshadow="0"
     inkscape:deskcolor="#d1d1d1"
     showgrid="false"
     inkscape:zoom="9.3571429"
     inkscape:cx="53.328244"
     inkscape:cy="18.007634"
     inkscape:window-width="1920"
     inkscape:window-height="991"
     inkscape:window-x="-9"
     inkscape:window-y="-9"
     inkscape:window-maximized="1"
     inkscape:current-layer="g8" /><g
     id="g8"
     inkscape:groupmode="layer"
     inkscape:label="ink_ext_XXXXXX"
     transform="matrix(1.3333333,0,0,-1.3333333,0,36)"><g
       id="g10"
       transform="scale(0.1)"
       style="fill:#f2f2f2"><path
         d="m 120.301,59.75 c -12.86,8.125 -26.0588,5.2461 -45.8791,27.168 -10.0391,11.1015 -18.7188,30.676 -18.5625,51.598 0.4414,60.269 50.7496,69.339 64.2536,76.742 l -0.164,50.801 C 56.582,262.582 3.65234,204.441 3.96094,136.492 4.26172,72.0781 57.8828,10.457 120.461,9.50781 Z m 169.199,41.852 0.117,-23.4145 76.332,0.5078 -0.808,18.543 -69.516,0.0742 c -1.855,2.8435 -6.465,-5.0117 -0.121,6.8635 l 13.961,10.039 0.305,81.133 -20.309,0.379 z m 299.652,77.144 13.118,-15.734 c 8.359,5.039 11.285,12.23 25.488,14.652 16.086,2.754 20.543,-2.832 31.398,-6.398 L 669,186.984 c -27.043,23.563 -62.133,8.438 -79.848,-8.238 z m 287.133,-0.801 37.602,-0.949 0.554,18.574 -96.691,0.172 0.043,-18.722 55.996,0.886 c -3.601,-6.34 -12.082,-12.375 -18.316,-17.172 l 0.277,-82.5465 20.344,1.082 z M 387.637,97.4648 c 4.66,8.4142 10.426,12.9302 17.011,16.4802 l 0.106,81.797 -20.527,-0.226 0.578,-117.3168 75.695,0.6875 -0.543,18.2813 z m 592.523,-19.2656 0.485,24.3358 c -17.157,3.578 -30.286,15.692 -29.993,35.922 0.391,27.137 17.118,25.836 29.469,36.41 l 0.102,22.125 c -73.168,-9 -69.43,-111.7068 -0.063,-118.7928 z m 10.641,96.6678 c 5.633,-4.808 29.489,-9.418 30.129,-36.375 0.49,-20.187 -13.37,-32.254 -30.16,-36.164 l 0.054,-23.9569 c 70.886,3.082 71.146,114.9419 0.223,118.2619 z M 654.816,100.445 c -40.906,-18.6012 -70.628,19.832 -53.019,60.211 l -23.207,-0.097 c -3.402,-16.407 -6.641,-26.793 -0.496,-44.504 16.824,-48.4925 71.234,-47.7152 97.621,-26.012 l -0.317,52.359 -47.242,-0.035 0.02,-18.64 26.668,-0.168 z m -175.488,77.024 18.43,-0.668 c -21.012,-23.485 -18.324,0.918 -18.735,-54.442 l 0.274,-44.0582 75.894,0.3515 0.157,18.2852 -55.692,0.375 0.082,29.6565 42.836,0.629 1.028,18.406 -43.719,0.73 -0.426,30.059 56.012,0.527 0.14,17.473 -76.421,0.883 z m 251.938,-63.707 18.914,39.492 16.871,-39.465 z m 14.55,47.476 -15.804,-0.562 -37.188,-82.0979 20.867,-0.1523 7.653,15.7422 54.949,0.3867 8.145,-16.0781 19.988,-0.3203 c -1.469,9.3359 -44.742,102.6367 -52.367,116.6567 l -20.621,1.125 z m -596.851,-1.062 c -21.199,-87.5705 80.023,-111.0041 110.633,-54.379 16.679,30.848 4.105,67.48 -17.578,82.094 -24.188,16.304 -69.473,13.433 -82,-11.641 5.664,-4.383 8.781,-7.887 12.914,-12.602 43.031,39.133 94.101,-8.46 67.199,-50.363 -9.633,-15.0037 -36.418,-24.7264 -57.242,-10.793 -21.743,14.551 -18.61,33.031 -12.157,58.399 l -21.769,-0.715"
         style="fill:#f2f2f2;fill-opacity:1;fill-rule:evenodd;stroke:none"
         id="path12" /></g></g></svg>
